<?xml version="1.0" encoding="utf-8"?>
<!-- Generator: Adobe Illustrator 17.0.0, SVG Export Plug-In . SVG Version: 6.00 Build 0)  -->
<!DOCTYPE svg PUBLIC "-//W3C//DTD SVG 1.0//EN" "http://www.w3.org/TR/2001/REC-SVG-20010904/DTD/svg10.dtd">
<svg version="1.0" id="Capa_1" xmlns="http://www.w3.org/2000/svg" xmlns:xlink="http://www.w3.org/1999/xlink" x="0px" y="0px"
	 width="1400px" height="980px" viewBox="0 0 1400 980" enable-background="new 0 0 1400 980" xml:space="preserve">
<g>
	<defs>
		<rect id="SVGID_1_" width="1400" height="980"/>
	</defs>
	<clipPath id="SVGID_2_">
		<use xlink:href="#SVGID_1_"  overflow="visible"/>
	</clipPath>
	<rect clip-path="url(#SVGID_2_)" fill="#365775" width="1400" height="980"/>
	<g clip-path="url(#SVGID_2_)">
		<g>
			<path fill="#FFFFFF" d="M749.5,611.3c-2.9,0-5.7-1.5-7.2-4.2c-2.3-4-0.9-9.1,3.1-11.3l361-207.4L916.1,278.6L849,319.8
				c-3.9,2.4-9,1.2-11.4-2.7c-2.4-3.9-1.2-9,2.7-11.4l71.3-43.8c2.6-1.6,5.9-1.6,8.5-0.1l207,119.5c2.6,1.5,4.2,4.2,4.2,7.2
				c0,3-1.6,5.7-4.2,7.2L753.6,610.2C752.3,610.9,750.9,611.3,749.5,611.3z"/>
		</g>
		<g>
			<path fill="#FFFFFF" d="M885.7,707.9c-2.9,0-5.7-1.5-7.3-4.2c-2.2-4-0.8-9.1,3.2-11.3l223.2-125.3l-142.3-82.2
				c-4-2.3-3.1-6.1-0.8-10.1c2.3-4,5.2-6.6,9.1-4.3l154.9,89.4c2.6,1.5,4.2,4.3,4.2,7.2c0,3-1.6,5.7-4.2,7.2L889.8,706.9
				C888.5,707.6,887.1,707.9,885.7,707.9z"/>
		</g>
		<g>
			<path fill="#FFFFFF" d="M611.3,583.6c-1.4,0-2.9-0.4-4.2-1.2l-88.5-52.5c-2.5-1.5-4-4.1-4.1-7c0-2.9,1.4-5.6,3.8-7.1l101.5-64.9
				c3.9-2.5,9-1.3,11.5,2.5c2.5,3.9,1.3,9-2.5,11.5l-90.1,57.7l76.9,45.6c3.9,2.3,5.2,7.4,2.9,11.4
				C616.9,582.1,614.1,583.6,611.3,583.6z"/>
		</g>
		<g>
			<path fill="#FFFFFF" d="M413.6,524.9c-1.4,0-2.8-0.4-4.2-1.1l-144.7-84c-2.6-1.5-4.1-4.2-4.1-7.2c0-3,1.6-5.7,4.1-7.2L407.3,343
				l-141.6-81.7c-2.6-1.5-4.1-4.2-4.2-7.2c0-3,1.6-5.7,4.1-7.2L574.8,67.2c2.6-1.5,5.7-1.5,8.3,0l310.5,179.1c2.5,1.5,4.1,4.1,4.2,7
				c0.1,2.9-1.4,5.6-3.9,7.2l-71.6,44.8c-3.9,2.4-9,1.2-11.4-2.6c-2.4-3.9-1.2-9,2.6-11.4l59.9-37.4L579,84L286.5,254.1l141.6,81.7
				c2.6,1.5,4.2,4.2,4.2,7.2c0,3-1.6,5.7-4.1,7.2l-142.5,82.5l132.3,76.8c4,2.3,5.3,7.4,3,11.4C419.3,523.4,416.5,524.9,413.6,524.9
				z"/>
		</g>
		<g>
			<polygon fill="#FFC9C5" points="1001.9,378.4 903.6,407.8 936.3,426.7 1001.8,389 			"/>
		</g>
		<g>
			<polygon fill="#FFFFFF" points="1123,926.9 1139.3,916.9 1139.3,648.2 828.7,469.3 812.2,479.2 			"/>
		</g>
		<g>
			<path fill="#FFC9C5" d="M909.9,781.6c0,0,25.8,15.7,10,52.4l75.8,45.8c0,0,16.1-29.2-7.9-53.3"/>
		</g>
		<g>
			<polyline fill="#FFC9C5" points="919.9,834.1 904.6,842.9 979.8,889 995.7,879.8 			"/>
		</g>
		<g>
			<g>
				<polygon fill="#FF6D69" points="308.7,634.3 308.1,499.6 463.2,410.6 463.2,544.9 				"/>
			</g>
			<g>
				<polygon fill="#FF6D69" points="308.1,634.5 346.7,656.6 501.3,567.2 424.3,522.8 				"/>
			</g>
			<g>
				<polygon fill="#FFFFFF" points="308.1,499.6 346.2,521.4 501.3,432.9 463.2,410.1 				"/>
			</g>
			<g>
				<polygon fill="#FFC9C5" points="346.7,656.6 346.2,521.4 501.3,432.9 501.3,567.2 				"/>
			</g>
			<g>
				<path fill="#FF6D69" d="M410.2,590.8c-15.8-10.1-16.9-36.8-2.3-59.8c9.1-14.4,22.2-23.9,34.6-26.5c-15.4-3.5-35.1,6.9-47.5,26.5
					c-14.6,23-13.6,49.7,2.3,59.8c5.9,3.8,13.1,4.6,20.5,3.1C415.1,593.3,412.6,592.3,410.2,590.8z"/>
			</g>
			<g>
				
					<ellipse transform="matrix(0.8443 0.5359 -0.5359 0.8443 362.2507 -148.2196)" fill="#FF6D69" cx="436.2" cy="549.2" rx="22.7" ry="32.9"/>
			</g>
			<g>
				<linearGradient id="SVGID_3_" gradientUnits="userSpaceOnUse" x1="455.2803" y1="533.957" x2="443.1136" y2="543.7903">
					<stop  offset="0" style="stop-color:#FFFFFF"/>
					<stop  offset="1" style="stop-color:#FFFFFF;stop-opacity:0"/>
				</linearGradient>
				<path fill="url(#SVGID_3_)" d="M449.2,530.1c-6.5-4.1-16.4-0.3-22.9,8.5c5.6-4,11.9-5,16.4-2.1c6.9,4.4,7.3,16,1,26
					c-0.4,0.6-0.7,1.1-1.1,1.6c2.8-2,5.4-4.7,7.6-8.1C456.5,546.1,456.1,534.5,449.2,530.1z"/>
			</g>
			<g>
				<path fill="#FFC9C5" d="M346.2,495.2c2.9,0,5.3,1,6.1,2.3c0.2-0.3,0.3-0.7,0.3-1c0-1.8-2.9-3.3-6.4-3.3c-3.6,0-6.4,1.5-6.4,3.3
					c0,0.4,0.1,0.7,0.3,1C340.9,496.2,343.3,495.2,346.2,495.2z"/>
			</g>
			<g>
				<path fill="#FF6D69" d="M346.2,502.1c-5.4,0-9.9-1.8-11.5-4.3c-0.4,0.6-0.6,1.2-0.6,1.9c0,3.4,5.4,6.2,12.1,6.2
					c6.7,0,12.1-2.8,12.1-6.2c0-0.7-0.3-1.3-0.6-1.9C356.1,500.3,351.5,502.1,346.2,502.1z"/>
			</g>
			<g>
				<polygon fill="#FF6D69" points="464.2,486.2 464.1,469.1 483.8,457.8 483.8,474.9 				"/>
			</g>
			<g>
				<polygon fill="#FFFFFF" points="467.9,481 467.9,470.2 480.3,463.1 480.3,473.8 				"/>
			</g>
		</g>
		<g>
			<g>
				<polygon fill="#FF6D69" points="423.7,683.6 423.7,704.8 542.1,773.1 772.7,637.6 772.7,616.4 				"/>
			</g>
			<g>
				<polygon fill="#FF6D69" points="423.7,704.8 656.4,570.4 772.7,637.6 542.1,773.1 				"/>
			</g>
			<g>
				<polygon fill="#FFFFFF" points="423.7,683.6 656.4,549.2 772.7,616.4 542.1,751.9 				"/>
			</g>
			<g>
				<polygon fill="#FF6D69" points="463.5,673.5 647.2,567.5 739,620.5 557,727.5 				"/>
			</g>
			<g>
				<polygon fill="#FFC9C5" points="476.1,703.7 504.5,720 518.7,711.8 490.5,695.3 				"/>
			</g>
			<g>
				<polygon fill="#FFC9C5" points="682.1,579.9 709.6,595.6 717.5,591 690.1,575.3 				"/>
			</g>
			<g>
				<polygon fill="#FFFFFF" points="481.2,704.3 502.3,716.5 512.8,710.4 491.9,698.1 				"/>
			</g>
			<g>
				<polygon fill="#FFC9C5" points="542.1,751.9 542.1,773.1 772.7,637.6 772.7,616.4 				"/>
			</g>
		</g>
		<g>
			<g>
				<polygon fill="#FF6D69" points="497.6,374.7 497.6,195.4 730.1,60.2 730.2,240.4 				"/>
			</g>
			<g>
				<polygon fill="#FF6D69" points="507.1,355.4 507.1,202.9 721.2,79.4 721.3,232.7 				"/>
			</g>
			<g>
				<polygon fill="#FFFFFF" points="730.2,240.4 885.7,329.7 653.1,464.5 497.6,374.7 				"/>
			</g>
			<g>
				<polygon fill="#FFC9C5" points="727.7,254.1 811,301.5 606.1,420.2 522.7,372.4 				"/>
			</g>
			<g>
				<polygon fill="#FFC9C5" points="756.4,345.1 792.4,365.8 715,410.6 679,389.7 				"/>
			</g>
			<g>
				<polygon fill="#FFFFFF" points="497.6,195.4 483.8,187.6 716,53.1 730.1,60.2 				"/>
			</g>
			<g>
				<path fill="#FFFFFF" d="M483.8,187.6"/>
			</g>
			<g>
				<polyline fill="#FFC9C5" points="497.6,374.7 483.8,366.7 483.8,187.6 497.6,195.4 				"/>
			</g>
			<g>
				<polygon fill="#FFC9C5" points="885.7,329.7 885.7,342 652.9,477.7 652.9,464.5 				"/>
			</g>
			<g>
				<polyline fill="#FFC9C5" points="652.9,477.7 483.8,382.7 483.8,366.7 652.9,464.5 				"/>
			</g>
		</g>
		<g>
			<polygon fill="#FFFFFF" points="812.3,748 812.3,479.3 1123,658.3 1123,926.9 			"/>
		</g>
		<g>
			<polygon fill="#FFFFFF" points="828.7,738 828.7,469.3 1139.3,648.2 1139.3,916.9 			"/>
		</g>
		<g>
			<polygon fill="#FF6D69" points="812.3,708.1 812.2,479.2 1123,658.8 1122.9,888.6 			"/>
		</g>
		<g>
			<polygon fill="#FF6D69" points="828.7,700.1 828.7,509.3 1103.8,668.3 1103.8,859.1 			"/>
		</g>
		<g>
			<polyline fill="#FFC9C5" points="1123,658.8 1139.3,648.2 1139.3,916.9 1123,926.9 1122.4,661.6 			"/>
		</g>
		<g>
			<polygon fill="#FFFFFF" points="969.2,359.4 903.8,397.2 936.5,416.1 1001.9,378.4 			"/>
		</g>
		<g>
			<polygon fill="#FF6D69" points="903.8,397.2 903.6,407.8 936.3,426.7 936.5,416.1 			"/>
		</g>
		<g>
			<polygon fill="#FFC9C5" points="926.5,413.9 898.4,418.8 910.4,425.7 926.5,416.5 			"/>
		</g>
		<g>
			<polygon fill="#FFFFFF" points="914.4,407 908.3,410.5 898.4,416.2 910.5,423.1 926.5,413.9 			"/>
		</g>
		<g>
			<polygon fill="#FF6D69" points="898.4,416.2 898.4,418.8 910.4,425.7 910.5,423.1 			"/>
		</g>
		<g>
			<polygon fill="#FF6D69" points="904.5,419.9 904.3,419.4 907.2,417.8 905.1,416.4 908.3,414.5 908.5,414.5 910.5,415.8 
				912.5,414.7 910.8,413.4 913.6,411.6 915.5,412.6 920.8,409.7 921,410.2 915.5,413.3 913.6,412.3 911.7,413.4 913.5,414.8 
				910.5,416.4 910.3,416.3 908.3,415.1 906.1,416.4 908.3,417.9 			"/>
		</g>
	</g>
	<linearGradient id="SVGID_4_" gradientUnits="userSpaceOnUse" x1="642.1992" y1="147.5155" x2="589.1992" y2="280.5154">
		<stop  offset="0" style="stop-color:#FFFFFF;stop-opacity:0"/>
		<stop  offset="1" style="stop-color:#FFFFFF"/>
	</linearGradient>
	<polygon clip-path="url(#SVGID_2_)" fill="url(#SVGID_4_)" points="507.1,202.9 721.3,232.7 721.2,79.4 	"/>
	<linearGradient id="SVGID_5_" gradientUnits="userSpaceOnUse" x1="582.0196" y1="637.1176" x2="651.7784" y2="661.7383">
		<stop  offset="0" style="stop-color:#FFFFFF"/>
		<stop  offset="1" style="stop-color:#FFFFFF;stop-opacity:0"/>
	</linearGradient>
	<polygon clip-path="url(#SVGID_2_)" fill="url(#SVGID_5_)" points="646,575.3 563,714.8 723,620.8 	"/>
	<linearGradient id="SVGID_6_" gradientUnits="userSpaceOnUse" x1="828.7343" y1="763.6725" x2="1058.0061" y2="763.6725">
		<stop  offset="0" style="stop-color:#FFFFFF"/>
		<stop  offset="1" style="stop-color:#FFFFFF;stop-opacity:0"/>
	</linearGradient>
	<polygon clip-path="url(#SVGID_2_)" fill="url(#SVGID_6_)" points="1103.8,668.3 1103.8,859.1 828.7,700.1 	"/>
	<g clip-path="url(#SVGID_2_)">
		<path fill="#FFFFFF" d="M-43.4,527.9c-3.4,0-6.8-1.8-8.6-4.9c-2.8-4.8-1.2-10.9,3.5-13.7L331,285.9c4.8-2.8,10.9-1.2,13.7,3.5
			c2.8,4.8,1.2,10.9-3.5,13.7L-38.3,526.5C-39.9,527.4-41.6,527.9-43.4,527.9z"/>
	</g>
	<g clip-path="url(#SVGID_2_)">
		<path fill="#FFFFFF" d="M1014.2,327.6c-3.5,0-6.9-1.8-8.7-5.1c-2.7-4.8-1-10.9,3.8-13.6l506.8-283.7c4.8-2.7,10.9-1,13.6,3.8
			c2.7,4.8,1,10.9-3.8,13.6l-506.8,283.7C1017.6,327.2,1015.9,327.6,1014.2,327.6z"/>
	</g>
	<g clip-path="url(#SVGID_2_)">
		<path fill="#FFFFFF" d="M1481.5,681.8c-1.6,0-3.3-0.4-4.8-1.2L1049,444.7c-4.8-2.7-6.6-8.7-3.9-13.6c2.7-4.8,8.7-6.6,13.6-3.9
			L1486.4,663c4.8,2.7,6.6,8.7,3.9,13.6C1488.5,679.9,1485.1,681.8,1481.5,681.8z"/>
	</g>
	<g clip-path="url(#SVGID_2_)">
		<path fill="#FFFFFF" d="M105.5,890.5c0,5.1,2.6,7.5,7.6,7.5h8.3l0.5,2.9c-2.8,0.5-7.2,0.8-9.1,0.8c-7.5,0-11.3-3.9-11.3-10.8
			v-34.2h-8.6v-2.9l8.6-0.4v-14.8h4v14.7h17v3.4h-17V890.5z"/>
		<path fill="#FFFFFF" d="M135.6,879.1c0.5,14.8,5.9,19.5,18,19.5c6.1,0,12.3-0.6,16.3-1.2l0.5,2.8c-3.6,1.2-12.1,2-17.3,2
			c-15.4,0-21.7-7-21.7-25.2c0-18.4,5.9-24.8,20.9-24.8c12.9,0,19,4.8,19.2,14.1c0.2,8.5-2.8,13-10.5,13H135.6z M160.4,875.8
			c5.4,0,7.2-3.7,7-9.5c-0.1-7.5-4.9-10.7-14.9-10.7c-12.4,0-16.8,5.1-16.9,20.2H160.4z"/>
		<path fill="#FFFFFF" d="M220.9,900.3c-4.6,1.2-10,1.9-14.9,1.9c-16,0-22.1-6.6-22.1-25c0-18.4,6-25,22-25c3.8,0,9.7,0.4,14,1.9
			l-0.7,2.7c-3.7-0.7-9.3-1-12.6-1c-13.6,0-18.5,4.8-18.5,21.5c0,16.6,4.9,21.5,18.5,21.5c2.8,0,9.3-0.2,13.8-1.1L220.9,900.3z"/>
		<path fill="#FFFFFF" d="M238,852.4c0,3.6-0.1,6.7-0.5,9.3c7.9-5.9,15.3-9.6,22.7-9.6c8.5,0,12.9,4.5,12.9,13.1V901h-4v-35
			c0-7.2-3.1-10.3-9.8-10.3c-6.8,0-12.7,3.1-21.4,9.1V901h-4v-69.3h4.1V852.4z"/>
		<path fill="#FFFFFF" d="M294.1,861.7c8-6.2,15.4-9.6,22.8-9.6c8.4,0,12.9,4.5,12.9,13.1V901h-4v-35c0-7.2-3.2-10.3-9.8-10.3
			c-6.8,0-12.7,3.2-21.5,9.1V901h-3.9v-47.7h3.2L294.1,861.7z"/>
		<path fill="#FFFFFF" d="M387.4,877.1c0,18.4-5.6,25-21.3,25c-15.6,0-21.3-6.6-21.3-25c0-18.3,5.6-25,21.3-25
			C381.8,852.1,387.4,858.8,387.4,877.1z M349,877.1c0,16.3,4.5,21.6,17.1,21.6c12.7,0,17.2-5.2,17.2-21.6
			c0-16.3-4.6-21.5-17.2-21.5C353.5,855.6,349,860.8,349,877.1z"/>
		<path fill="#FFFFFF" d="M406.9,890.5c-0.1,4.9,2.7,7.5,7.5,7.5h5.4l0.5,2.9c-1.5,0.5-5,0.8-6.9,0.8c-6.3,0-10.5-3.8-10.5-10.6
			v-59.4h4V890.5z"/>
		<path fill="#FFFFFF" d="M470.4,877.1c0,18.4-5.6,25-21.3,25c-15.6,0-21.3-6.6-21.3-25c0-18.3,5.6-25,21.3-25
			C464.8,852.1,470.4,858.8,470.4,877.1z M432,877.1c0,16.3,4.5,21.6,17.1,21.6c12.7,0,17.2-5.2,17.2-21.6
			c0-16.3-4.6-21.5-17.2-21.5C436.5,855.6,432,860.8,432,877.1z"/>
		<path fill="#FFFFFF" d="M519,856.2c2.8,2.5,3.9,6,3.9,10.8c0,10-5.2,14.7-19.3,14.7c-4.8,0-8.7-0.6-11.7-1.8
			c-3.8,4.4-3.8,10.3,4.1,11.7l18.8,3.3c8.5,1.4,10.8,5.1,10.8,12.8c0,10.4-5.8,14-21.4,14c-16.2,0-22-3.6-22-13.9
			c0-6.5,1.4-10.2,7.1-13.2l1.4-0.8c-6.6-3.1-5.8-11-1-14.9c-3.9-2.4-5.5-6.3-5.5-11.9c0-10,5.3-14.9,19.5-14.9c4,0,7.3,0.4,9.9,1.2
			h14.9l-0.3,2.6L519,856.2z M491.8,896.1c-4.6,2.9-5.7,5.7-5.7,11.5c0,8,4.7,10.6,18,10.6c13,0,17.6-2.7,17.6-10.6
			c0-5.9-1.5-8.3-8.5-9.6l-19.1-3.2h-0.2L491.8,896.1z M519.1,867c0-7.8-4-11.7-15.5-11.7c-11.5,0-15.6,3.9-15.6,11.7
			c0,7.8,4.3,11.5,15.6,11.5C515,878.5,519.1,874.8,519.1,867z"/>
		<path fill="#FFFFFF" d="M558,905.1c-3.3,8-7.4,14.5-16.8,16.5l-0.6-2.5c7.8-2.9,11.3-8.2,13.9-14.8l1.4-3.4h-1.3
			c-0.8,0-1.4-0.4-1.7-1.2l-19-46.5h4.3l15.6,39.1c0.7,1.8,1.5,3.6,2.1,5.3h1.3l2.2-5.4l15.7-39h4.2L558,905.1z"/>
	</g>
</g>
<linearGradient id="SVGID_7_" gradientUnits="userSpaceOnUse" x1="1005.1956" y1="811.0999" x2="1086.9607" y2="945.7719">
	<stop  offset="0" style="stop-color:#1D1D1B"/>
	<stop  offset="1" style="stop-color:#1D1D1B;stop-opacity:0"/>
</linearGradient>
<polyline opacity="0.5" fill="url(#SVGID_7_)" points="979.8,889 1130.3,980 1161.9,949.4 1001,856.7 "/>
<linearGradient id="SVGID_8_" gradientUnits="userSpaceOnUse" x1="430.1833" y1="584.7339" x2="470.4672" y2="651.0839">
	<stop  offset="0" style="stop-color:#1D1D1B"/>
	<stop  offset="1" style="stop-color:#1D1D1B;stop-opacity:0"/>
</linearGradient>
<polyline opacity="0.5" fill="url(#SVGID_8_)" points="346.7,656.6 423.7,704.8 576.6,616.5 501.3,567.2 "/>
<linearGradient id="SVGID_9_" gradientUnits="userSpaceOnUse" x1="157.3486" y1="390.8658" x2="198.583" y2="458.7812">
	<stop  offset="0" style="stop-color:#1D1D1B"/>
	<stop  offset="1" style="stop-color:#1D1D1B;stop-opacity:0"/>
</linearGradient>
<polyline opacity="0.5" fill="url(#SVGID_9_)" points="0,508.1 0,602.6 421,354.3 345.7,305 "/>
<linearGradient id="SVGID_10_" gradientUnits="userSpaceOnUse" x1="1235.0017" y1="179.5988" x2="1283.1486" y2="258.8994" gradientTransform="matrix(-0.4947 0.8691 0.8691 0.4947 1667.3417 -969.4823)">
	<stop  offset="0" style="stop-color:#1D1D1B"/>
	<stop  offset="1" style="stop-color:#1D1D1B;stop-opacity:0"/>
</linearGradient>
<polyline opacity="0.5" fill="url(#SVGID_10_)" points="1400,113.2 1457.9,168 1127.1,381.2 1025.7,322.7 "/>
<linearGradient id="SVGID_11_" gradientUnits="userSpaceOnUse" x1="440.2559" y1="139.1779" x2="481.1366" y2="206.5109">
	<stop  offset="0" style="stop-color:#1D1D1B"/>
	<stop  offset="1" style="stop-color:#1D1D1B;stop-opacity:0"/>
</linearGradient>
<polyline opacity="0.5" fill="url(#SVGID_11_)" points="286.5,254.1 363.4,302.2 657.9,129.5 578.5,84.3 "/>
<linearGradient id="SVGID_12_" gradientUnits="userSpaceOnUse" x1="364.9039" y1="365.9017" x2="400.1752" y2="423.9956">
	<stop  offset="0" style="stop-color:#1D1D1B"/>
	<stop  offset="1" style="stop-color:#1D1D1B;stop-opacity:0"/>
</linearGradient>
<polyline opacity="0.5" fill="url(#SVGID_12_)" points="285.5,432.7 354.5,472.5 499.4,389.9 428.9,349.6 "/>
<linearGradient id="SVGID_13_" gradientUnits="userSpaceOnUse" x1="590.5374" y1="470.1439" x2="625.2117" y2="527.2545">
	<stop  offset="0" style="stop-color:#1D1D1B"/>
	<stop  offset="1" style="stop-color:#1D1D1B;stop-opacity:0"/>
</linearGradient>
<polyline opacity="0.5" fill="url(#SVGID_13_)" points="539.3,523.4 608.3,563.2 697,508 629.5,464.7 "/>
<linearGradient id="SVGID_14_" gradientUnits="userSpaceOnUse" x1="896.1609" y1="273.621" x2="929.4189" y2="328.3987">
	<stop  offset="0" style="stop-color:#1D1D1B"/>
	<stop  offset="1" style="stop-color:#1D1D1B;stop-opacity:0"/>
</linearGradient>
<polyline opacity="0.5" fill="url(#SVGID_14_)" points="858.5,314 927.6,353.1 985.8,318.8 918.3,279.8 "/>
<linearGradient id="SVGID_15_" gradientUnits="userSpaceOnUse" x1="976.2375" y1="382.1804" x2="1014.8605" y2="445.7946">
	<stop  offset="0" style="stop-color:#1D1D1B"/>
	<stop  offset="1" style="stop-color:#1D1D1B;stop-opacity:0"/>
</linearGradient>
<polyline opacity="0.5" fill="url(#SVGID_15_)" points="936.3,426.7 1013.3,474.9 1076.5,437 1001.8,389 "/>
<linearGradient id="SVGID_16_" gradientUnits="userSpaceOnUse" x1="775.6858" y1="383.184" x2="815.8921" y2="449.4061">
	<stop  offset="0" style="stop-color:#1D1D1B"/>
	<stop  offset="1" style="stop-color:#1D1D1B;stop-opacity:0"/>
</linearGradient>
<polyline opacity="0.5" fill="url(#SVGID_16_)" points="651.7,479.6 728.7,527.8 962.4,390.2 887.1,340.9 "/>
<linearGradient id="SVGID_17_" gradientUnits="userSpaceOnUse" x1="663.7771" y1="679.5595" x2="703.5719" y2="745.1039">
	<stop  offset="0" style="stop-color:#1D1D1B"/>
	<stop  offset="1" style="stop-color:#1D1D1B;stop-opacity:0"/>
</linearGradient>
<polyline opacity="0.5" fill="url(#SVGID_17_)" points="541.7,774.6 618.7,822.8 848,686.9 772.7,637.6 "/>
<linearGradient id="SVGID_18_" gradientUnits="userSpaceOnUse" x1="1108.3647" y1="562.4371" x2="1148.7898" y2="629.0195">
	<stop  offset="0" style="stop-color:#1D1D1B"/>
	<stop  offset="1" style="stop-color:#1D1D1B;stop-opacity:0"/>
</linearGradient>
<polyline opacity="0.5" fill="url(#SVGID_18_)" points="1069,607.7 1154,655.8 1208.9,617.9 1129.5,572.7 "/>
<linearGradient id="SVGID_19_" gradientUnits="userSpaceOnUse" x1="949.6658" y1="474.8977" x2="990.0909" y2="541.4801">
	<stop  offset="0" style="stop-color:#1D1D1B"/>
	<stop  offset="1" style="stop-color:#1D1D1B;stop-opacity:0"/>
</linearGradient>
<polyline opacity="0.5" fill="url(#SVGID_19_)" points="914,517.8 999.1,566 1047.1,533.7 967.6,488.5 "/>
<linearGradient id="SVGID_20_" gradientUnits="userSpaceOnUse" x1="1023.653" y1="432.3889" x2="1064.078" y2="498.9713">
	<stop  offset="0" style="stop-color:#1D1D1B"/>
	<stop  offset="1" style="stop-color:#1D1D1B;stop-opacity:0"/>
</linearGradient>
<polyline opacity="0.5" fill="url(#SVGID_20_)" points="983.9,477.8 1068.9,526 1123.3,485.7 1045,442.8 "/>
<linearGradient id="SVGID_21_" gradientUnits="userSpaceOnUse" x1="1106.1531" y1="385.3889" x2="1146.578" y2="451.9713">
	<stop  offset="0" style="stop-color:#1D1D1B"/>
	<stop  offset="1" style="stop-color:#1D1D1B;stop-opacity:0"/>
</linearGradient>
<polyline opacity="0.5" fill="url(#SVGID_21_)" points="1066.4,430.8 1151.4,479 1205.8,438.7 1127.5,395.8 "/>
<linearGradient id="SVGID_22_" gradientUnits="userSpaceOnUse" x1="914.7574" y1="395.5103" x2="949.9049" y2="453.4003">
	<stop  offset="0" style="stop-color:#1D1D1B"/>
	<stop  offset="1" style="stop-color:#1D1D1B;stop-opacity:0"/>
</linearGradient>
<polygon opacity="0.5" fill="url(#SVGID_22_)" points="922.6,418.7 910.4,425.7 902.9,421.4 898.6,423.8 969.7,466.9 985.8,457.7 
	"/>
</svg>
